PathFileType	3	(X/Y/Z)	uphill_walking_calibrated.trc																																																																												
DataRate	CameraRate	NumFrames	NumMarkers	Units	OrigDataRate	OrigDataStartFrame	OrigNumFrames																																																																								
100	100	13	26	mm	100	2561	556																																																																								
Frame#	Time	RAcromium			LAcromium			C7			Clavicle			VSacral			RASIS			LASIS			RHip			LHip			RKneeLat			RKneeMed			LKneeMed			LKneeLat			LShankFront			RShankFront			RAnkleLat			RAnkleMed			LAnkleMed			LAnkleLat			LToeLat			LToeTip			RToeTip			RToeLat			RHeel			LHeel			T10		
		X1	Y1	Z1	X2	Y2	Z2	X3	Y3	Z3	X4	Y4	Z4	X5	Y5	Z5	X6	Y6	Z6	X7	Y7	Z7	X8	Y8	Z8	X9	Y9	Z9	X10	Y10	Z10	X11	Y11	Z11	X12	Y12	Z12	X13	Y13	Z13	X14	Y14	Z14	X15	Y15	Z15	X16	Y16	Z16	X17	Y17	Z17	X18	Y18	Z18	X19	Y19	Z19	X20	Y20	Z20	X21	Y21	Z21	X22	Y22	Z22	X23	Y23	Z23	X24	Y24	Z24	X25	Y25	Z25	X26	Y26	Z26
2561	25.6	1160.0166	1347.616	-470.84192	1163.8087	1354.9064	-730.75665	1144.5043	1411.7874	-597.19537	1182.4326	1216.072	-610.69788	768.39996	1018.7919	-598.44495	940.36981	965.74353	-473.66318	939.38489	938.23199	-736.95813	871.1535	915.08594	-415.43222	829.18909	881.98199	-786.91223	1072.2882	513.85657	-467.00061	1042.845	499.27002	-580.50885	649.60529	468.04587	-618.6214	664.58563	465.32425	-735.70386	638.95898	368.93011	-683.93597	1125.0045	441.97763	-523.95746	908.91681	94.903099	-479.45996	927.67944	104.80511	-564.82483	373.84265	135.1543	-617.46588	342.01495	120.80814	-700.92383	470.46414	33.134766	-730.34357	537.27112	32.844204	-660.38318	1115.1215	45.570503	-519.83118	1047.2263	37.41177	-442.54803	820.24103	19.108334	-518.87006	247.98254	74.862419	-658.43921	894.56726	1196.1473	-604.72772
2562	25.61	1161.5284	1348.0869	-469.40631	1164.8311	1355.5323	-729.50281	1145.7301	1412.2036	-595.94177	1184.104	1216.6833	-609.5274	770.89197	1018.6776	-596.39099	942.83704	965.34949	-472.95795	941.34845	937.76306	-735.79486	874.78912	913.50946	-414.82516	830.48309	881.6629	-785.23297	1069.2207	509.33682	-468.46451	1038.4353	495.28152	-582.01495	652.48407	466.7222	-617.90771	666.14209	464.995	-735.30334	638.72223	368.40259	-684.54578	1120.234	436.23251	-525.22998	898.57312	94.414162	-479.16467	917.08459	103.55224	-565.13397	369.56976	139.33127	-617.99268	336.94174	125.77963	-701.3551	460.31424	32.744991	-730.89862	527.07904	32.830475	-660.6413	1105.0853	44.473167	-519.56348	1037.0504	36.895752	-442.7272	809.69562	18.535563	-518.79004	241.44263	84.097633	-657.91309	896.14362	1195.8179	-603.42181
2563	25.62	1163.3273	1348.9915	-467.90506	1166.1138	1356.5023	-728.17889	1146.9385	1413.1953	-594.42963	1185.984	1217.7809	-608.28601	773.63757	1019.1338	-594.30493	945.90198	965.45081	-471.98566	943.48914	937.74243	-734.43195	878.57648	912.69012	-414.20395	832.21991	881.84753	-783.41797	1066.1346	505.66589	-469.72556	1033.8751	492.24554	-583.33868	656.63062	465.1507	-617.40088	668.90295	464.65891	-735.2674	639.91913	367.5806	-684.78552	1115.4579	431.81204	-527.01349	889.98059	93.242393	-480.14359	907.52441	102.18157	-566.34558	366.25476	143.95915	-618.9071	332.30295	132.12029	-701.97418	450.65796	32.594463	-731.54578	517.05878	32.944725	-660.83588	1095.1091	43.000099	-519.56464	1026.7708	36.575851	-442.92712	799.70386	18.741537	-519.37689	236.06459	94.128807	-657.60883	897.86096	1196.1223	-601.86353
2564	25.63	1165.4611	1350.2527	-466.37064	1167.5804	1357.9554	-726.86584	1148.6768	1414.6171	-593.09357	1187.996	1219.2863	-607.03571	776.43793	1020.1927	-592.34283	948.7597	966.0719	-470.96478	945.57922	938.39008	-733.10187	882.69812	912.5708	-412.91391	834.49713	882.48804	-781.65533	1063.2827	502.9621	-470.89465	1029.6371	490.22165	-583.85925	662.19202	463.56735	-617.18439	673.1076	464.11099	-734.71704	642.35815	366.57587	-685.27655	1112.1201	428.83014	-528.36182	880.73517	93.30423	-481.41098	897.93317	101.79216	-567.87494	364.0979	148.60115	-619.98059	329.38394	137.58301	-702.45667	441.29605	32.352417	-732.29749	507.51059	32.430779	-660.99194	1085.5471	41.857025	-519.5224	1016.7434	36.391151	-443.65698	789.42609	19.543718	-519.60944	232.0975	104.60251	-657.37408	899.93036	1197.0126	-600.1369
2565	25.64	1167.7245	1351.8245	-464.94199	1169.2637	1359.7699	-725.49768	1150.6158	1416.4321	-591.71429	1190.0852	1221.0775	-605.75732	779.54468	1021.5494	-590.47656	951.77594	967.23846	-469.61264	948.07031	939.69556	-731.37537	885.63312	913.42627	-411.73901	837.12036	883.61481	-780.02014	1060.0767	500.6188	-471.82028	1025.3735	488.95181	-584.68848	669.02325	461.95129	-617.18713	678.61182	463.77322	-735.11041	646.04205	365.47446	-685.94025	1107.6135	426.10767	-530.2168	871.24707	93.816902	-482.49933	889.13141	100.86651	-569.06079	363.20071	153.21823	-621.1499	327.51764	143.92072	-703.3692	432.42456	32.284702	-732.99402	498.29269	32.001381	-661.23761	1076.0573	40.77734	-520.12769	1007.326	36.229019	-444.17349	779.91571	19.780834	-520.22223	228.97839	116.87593	-657.29016	902.04913	1198.384	-598.22284
2566	25.65	1170.2097	1353.7719	-463.55765	1170.9908	1361.8358	-724.12903	1152.489	1418.6573	-590.35864	1192.1298	1223.1764	-604.6012	782.17267	1023.3059	-588.46411	954.92059	968.83746	-468.13611	950.58826	941.48615	-729.51929	888.36273	914.78741	-410.37637	840.0578	885.0957	-778.35315	1056.0403	498.44684	-472.47632	1020.9368	487.97229	-585.9317	677.31604	460.23288	-617.39899	685.94031	463.04144	-735.52649	651.04681	364.30182	-686.60114	1101.7302	422.73584	-532.92133	862.65363	93.375725	-483.32117	880.36896	100.02939	-569.85327	363.62128	158.20618	-622.67419	326.67047	151.15814	-704.66394	424.02298	32.199474	-733.6601	489.69205	31.311876	-661.19623	1067.3483	40.037006	-519.70343	998.21887	35.843826	-444.14355	770.61548	19.851248	-520.539	227.85074	129.21629	-657.19427	904.22156	1200.2584	-596.10388
2567	25.66	1172.7812	1355.9939	-462.25946	1172.6771	1364.1683	-722.71771	1154.3679	1421.1093	-588.99622	1194.1196	1225.5342	-603.38989	785.06927	1025.1561	-586.59821	958.09857	970.86475	-466.4093	953.12109	943.88867	-727.64386	891.21881	916.3324	-409.09583	843.11859	887.04388	-776.71826	1051.4076	496.07889	-472.92554	1016.004	487.33438	-587.27441	686.87769	458.68094	-617.97839	695.29779	461.61224	-735.14935	657.61145	363.62753	-687.54742	1095.0343	419.60791	-534.35852	853.6778	92.603302	-483.33936	871.17969	99.226173	-570.32318	365.4538	163.21565	-624.31812	327.61395	157.51024	-705.63818	416.78912	31.932104	-734.10864	481.36472	30.525127	-661.33856	1057.7721	39.352932	-519.74701	988.875	35.711178	-444.12665	761.15942	19.801731	-520.55518	228.15538	142.65364	-657.29901	906.59906	1202.4066	-593.9184
2568	25.67	1175.1427	1358.4113	-461.25635	1174.1698	1366.7512	-721.33398	1156.1232	1423.8521	-587.73877	1196.0468	1228.1113	-602.24597	787.78381	1027.2446	-584.66455	961.28375	973.17609	-464.60324	955.57654	946.82947	-725.59045	894.03333	918.11755	-407.80945	846.04626	889.80487	-775.21558	1046.0269	493.77255	-473.17157	1010.6511	486.74814	-589.39703	698.30133	455.8378	-619.25439	705.94208	460.17908	-736.14978	665.38147	363.50961	-688.51587	1088.8219	416.50473	-534.96869	844.27039	92.56588	-483.41068	861.80524	98.306465	-570.38794	368.57321	168.6508	-626.04248	329.78558	165.56223	-707.31433	410.14432	31.963083	-734.61487	473.28543	29.23562	-661.94763	1048.6492	39.187267	-519.17493	979.24493	35.36055	-443.90472	751.42474	19.703867	-520.48999	230.25282	157.05641	-657.80518	908.86853	1204.853	-591.69434
2569	25.68	1177.5918	1361.3011	-460.25165	1175.5487	1369.6128	-719.93317	1157.7174	1426.8575	-586.48206	1197.8004	1230.9288	-601.18628	790.711	1029.3374	-582.73254	964.44312	975.64661	-462.71762	957.63684	949.86591	-723.83521	896.8363	919.71863	-406.60104	849.30029	892.15131	-773.46539	1040.3557	491.54279	-473.16858	1004.9688	485.49417	-589.8772	710.45514	453.33084	-619.388	717.49841	458.27435	-736.61743	674.31805	363.68378	-689.98773	1081.8202	413.57523	-534.86798	834.47241	92.203781	-483.41873	851.72797	97.369102	-570.32776	373.08072	174.57735	-627.66284	333.95819	173.00868	-708.4339	404.37811	32.347481	-735.46497	464.83179	27.716005	-663.0127	1038.7966	39.143806	-518.79065	969.27808	35.146065	-443.81372	741.31989	19.541073	-520.44586	234.00914	172.61763	-658.78094	910.97522	1207.5161	-589.57379
2570	25.69	1179.9321	1364.0458	-459.23709	1176.599	1372.7588	-718.50409	1159.2966	1429.9297	-585.47772	1199.5271	1234.0509	-600.2533	793.01654	1031.5054	-580.33044	967.48639	978.08179	-460.98102	959.45862	953.35388	-722.22797	899.6687	921.08569	-405.36807	852.70123	894.40143	-771.62067	1034.3146	489.43207	-473.13205	997.29797	484.29041	-588.13837	723.88281	450.53046	-619.62158	729.63477	456.82669	-737.45795	685.30933	364.02408	-691.49731	1073.7819	410.41071	-534.8009	824.23834	91.735062	-483.56754	841.52759	96.896988	-570.79291	378.86072	181.04987	-628.93024	339.539	181.68925	-709.59912	399.15219	33.649117	-736.12	457.95059	25.197603	-663.68878	1029.3304	39.125305	-518.8811	958.73993	35.287941	-443.83246	730.90491	19.34271	-520.49298	239.99864	188.9138	-659.65479	913.09491	1210.1541	-587.5318
2571	25.7	1182.0074	1367.0732	-458.46378	1177.3213	1376.1255	-717.06671	1160.3381	1433.2577	-584.30194	1201.1436	1237.2998	-599.50745	795.29047	1033.8312	-577.94781	970.39795	980.39758	-459.45322	961.15552	956.80487	-720.82764	902.59546	922.14612	-404.25693	856.09375	896.55078	-769.51154	1027.7935	487.33847	-473.08795	989.4826	482.61032	-587.97791	738.13123	447.98538	-620.49475	742.41705	455.6001	-738.12653	698.5423	363.53619	-693.34674	1065.5399	408.00192	-533.93695	813.88104	91.440254	-483.90976	830.79034	96.159355	-570.93726	385.81366	187.77132	-629.69537	346.66455	190.61151	-710.3075	394.51904	36.134525	-736.16443	452.28558	21.82366	-664.05237	1018.7414	38.999592	-518.85315	948.24585	35.124825	-443.90451	720.44556	19.077658	-520.47449	248.04236	206.40396	-659.94727	915.00598	1212.8451	-585.61578
2572	25.71	1184.2928	1370.0292	-457.37341	1177.6547	1379.6661	-715.8631	1161.3386	1436.4766	-583.37177	1202.5771	1240.6528	-598.88098	797.3902	1036.4645	-575.47711	973.15381	982.72009	-458.17822	962.71783	960.40454	-719.37103	905.59058	923.23364	-403.32977	859.46472	898.44385	-767.24402	1020.6107	485.58115	-473.08704	980.75427	481.57138	-588.12585	753.3031	446.02185	-620.93195	755.65051	454.82462	-738.80548	712.69305	362.50281	-694.81207	1055.9634	404.92276	-534.77124	803.21375	91.065796	-484.04016	820.28796	95.791039	-571.38477	393.88959	195.09932	-629.96259	355.18146	200.0593	-710.59393	390.16705	40.506538	-736.04016	446.16998	18.7887	-664.60187	1008.2014	38.895222	-518.96161	937.56671	35.165588	-443.98325	709.31201	18.22953	-520.62476	259.03662	224.37093	-659.22943	916.66187	1215.436	-583.73853
2573	25.72	1185.8485	1373.3866	-457.06329	1177.9468	1383.2476	-714.90924	1162.246	1439.677	-582.69983	1203.7357	1244.0903	-598.48517	799.29413	1039.0242	-572.83691	975.64362	984.88831	-457.03421	963.60309	964.23743	-718.5766	908.76855	924.5332	-402.79962	862.54565	900.45105	-764.98962	1012.6059	484.22653	-472.80243	971.93878	480.6893	-588.49847	768.78131	444.58575	-621.41638	769.34332	454.59262	-739.37244	727.17743	360.92715	-695.81232	1047.3499	403.16745	-534.40692	792.63519	90.896866	-484.03995	809.66907	95.349442	-571.52667	404.05698	201.58208	-630.08112	365.33398	209.60597	-710.54626	387.06519	46.1992	-735.53906	440.43018	15.599077	-665.05316	997.44806	39.019798	-519.09521	927.19177	35.236576	-444.10394	698.86908	17.98436	-520.60846	272.47891	242.13776	-657.62885	918.20959	1217.9602	-581.79523
